<?xml version="1.0" encoding="UTF-8" standalone="no"?>
<svg
   width="24"
   height="24"
   viewBox="0 0 24 24"
   version="1.1"
   id="svg222"
   sodipodi:docname="source.svg"
   inkscape:version="1.2.2 (b0a8486541, 2022-12-01)"
   xmlns:inkscape="http://www.inkscape.org/namespaces/inkscape"
   xmlns:sodipodi="http://sodipodi.sourceforge.net/DTD/sodipodi-0.dtd"
   xmlns="http://www.w3.org/2000/svg"
   xmlns:svg="http://www.w3.org/2000/svg">
  <sodipodi:namedview
     id="namedview224"
     pagecolor="#ffffff"
     bordercolor="#000000"
     borderopacity="0.25"
     inkscape:showpageshadow="2"
     inkscape:pageopacity="0.0"
     inkscape:pagecheckerboard="0"
     inkscape:deskcolor="#d1d1d1"
     showgrid="false"
     inkscape:zoom="32.708333"
     inkscape:cx="12.015287"
     inkscape:cy="12.030573"
     inkscape:window-width="1920"
     inkscape:window-height="995"
     inkscape:window-x="0"
     inkscape:window-y="0"
     inkscape:window-maximized="1"
     inkscape:current-layer="svg222" />
  <defs
     id="defs216">
    <!-- Mask for cutouts: white = visible, black = transparent -->
    <mask
       id="cutoutMask">
      <!-- White base: everything visible -->
      <rect
         x="0"
         y="0"
         width="24"
         height="24"
         fill="white"
         id="rect207" />
      <!-- Black cutouts: areas to make transparent -->
      <!-- C-shape cutout (thick curve) -->
      <path
         d="M 14.625 10.875                C 14.25 10.125 13.5 9.75 12.75 9.75                C 11.25 9.75 10.125 10.875 10.125 12.375                C 10.125 13.875 11.25 15 12.75 15                C 13.5 15 14.25 14.625 14.625 13.875"
         stroke="black"
         stroke-width="1.5"
         stroke-linecap="round"
         fill="none"
         id="path209" />
      <!-- Horizontal line cutouts -->
      <rect
         x="12"
         y="16.875"
         width="3.75"
         height="1"
         fill="black"
         id="rect211" />
      <rect
         x="13.875"
         y="18"
         width="2.25"
         height="1"
         fill="black"
         id="rect213" />
    </mask>
  </defs>
  <!-- Outer frame stroke -->
  <path
     fill="none"
     stroke="currentColor"
     stroke-width="2.18171"
     stroke-linecap="butt"
     stroke-linejoin="round"
     d="M 3.3674722,1.3397462 H 16.077052 c 1.169847,0 2.118264,1.0060814 2.118264,2.2470549 V 17.069131 c 0,1.240974 -0.948417,2.247056 -2.118264,2.247056 H 3.3674722 c -1.1698463,0 -2.1182634,-1.006082 -2.1182634,-2.247056 V 3.5868011 c 0,-1.2409735 0.9484171,-2.2470549 2.1182634,-2.2470549 z"
     id="path218" />
  <!-- Main filled shape with mask applied -->
  <path
     fill="currentColor"
     mask="url(#cutoutMask)"
     d="M 9,7.5 H 19.5 C 20.3284,7.5 21,8.1716 21,9 v 9 c 0,0.8284 -0.6716,1.5 -1.5,1.5 H 9 C 8.1716,19.5 7.5,18.8284 7.5,18 V 9 C 7.5,8.1716 8.1716,7.5 9,7.5 Z"
     id="path220"
     transform="matrix(1.4121756,0,0,1.4980366,-5.7963781,-5.4472188)" />
</svg>
